<svg width="36" height="36" viewBox="0 0 36 36" fill="none" xmlns="http://www.w3.org/2000/svg">
<path opacity="0.3" d="M13.3333 22.0534V22.6668H13.9467L19.9867 16.6268L19.3733 16.0134L13.3333 22.0534Z" fill="#9095A0"/>
<path d="M12 21.4999V23.9999H14.5L21.8733 16.6266L19.3733 14.1266L12 21.4999ZM13.9467 22.6666H13.3333V22.0533L19.3733 16.0133L19.9867 16.6266L13.9467 22.6666ZM23.8067 13.7533L22.2467 12.1933C22.185 12.1315 22.1117 12.0824 22.0311 12.049C21.9504 12.0155 21.864 11.9983 21.7767 11.9983C21.6894 11.9983 21.6029 12.0155 21.5223 12.049C21.4416 12.0824 21.3683 12.1315 21.3067 12.1933L20.0867 13.4133L22.5867 15.9133L23.8067 14.6933C23.8685 14.6316 23.9175 14.5583 23.951 14.4777C23.9844 14.397 24.0016 14.3106 24.0016 14.2233C24.0016 14.1359 23.9844 14.0495 23.951 13.9688C23.9175 13.8882 23.8685 13.8149 23.8067 13.7533Z" fill="#9095A0"/>
</svg>
